<svg width="313" height="279" viewBox="0 0 313 279" fill="none" xmlns="http://www.w3.org/2000/svg">
<circle cx="53.5" cy="53.5" r="53.5" fill="url(#paint0_linear_1_32)"/>
<circle cx="259.5" cy="53.5" r="53.5" fill="url(#paint1_linear_1_32)"/>
<circle cx="155.5" cy="145.5" r="133.5" fill="url(#paint2_linear_1_32)"/>
<circle cx="157" cy="202.691" r="61" fill="#FFE6CE"/>
<path d="M181.896 185.481C181.896 197.286 168.601 218.322 156.694 218.322C144.787 218.322 130.943 197.286 130.943 185.481C130.943 173.677 144.787 171.8 156.694 171.8C168.601 171.8 181.896 173.677 181.896 185.481Z" fill="#BA7252"/>
<path d="M128.14 132.765C128.14 140.003 125.896 146.537 122.291 151.251C118.687 155.964 113.743 158.837 108.32 158.837C102.897 158.837 97.9532 155.964 94.3487 151.251C90.7439 146.537 88.5 140.003 88.5 132.765C88.5 125.527 90.7439 118.993 94.3487 114.279C97.9532 109.566 102.897 106.693 108.32 106.693C113.743 106.693 118.687 109.566 122.291 114.279C125.896 118.993 128.14 125.527 128.14 132.765Z" fill="white" stroke="black"/>
<path d="M127.961 133.032C127.961 147.855 118.757 158.083 108.875 158.083C98.9931 158.083 92.7715 147.855 92.7715 133.032C92.7715 118.209 98.9931 106.789 108.875 106.789C118.757 106.789 127.961 118.209 127.961 133.032Z" fill="#402216"/>
<path d="M126.172 131.16C126.172 143.915 118.684 152.715 110.644 152.715C102.605 152.715 97.5429 143.915 97.5429 131.16C97.5429 118.405 102.605 108.579 110.644 108.579C118.684 108.579 126.172 118.405 126.172 131.16Z" fill="black"/>
<circle cx="110.952" cy="117.217" r="6.25226" fill="white"/>
<circle cx="110.952" cy="117.217" r="6.25226" fill="white"/>
<path d="M223.569 131.572C223.569 138.81 221.325 145.344 217.72 150.058C214.116 154.771 209.172 157.644 203.749 157.644C198.326 157.644 193.382 154.771 189.778 150.058C186.173 145.344 183.929 138.81 183.929 131.572C183.929 124.334 186.173 117.8 189.778 113.087C193.382 108.373 198.326 105.5 203.749 105.5C209.172 105.5 214.116 108.373 217.72 113.087C221.325 117.8 223.569 124.334 223.569 131.572Z" fill="white" stroke="black"/>
<path d="M223.39 131.839C223.39 146.663 214.186 156.89 204.304 156.89C194.422 156.89 188.201 146.663 188.201 131.839C188.201 117.016 194.422 105.596 204.304 105.596C214.186 105.596 223.39 117.016 223.39 131.839Z" fill="#402216"/>
<path d="M221.601 129.967C221.601 142.722 214.113 151.522 206.073 151.522C198.034 151.522 192.972 142.722 192.972 129.967C192.972 117.212 198.034 107.386 206.073 107.386C214.113 107.386 221.601 117.212 221.601 129.967Z" fill="black"/>
<circle cx="206.382" cy="116.024" r="6.25226" fill="white"/>
<circle cx="206.382" cy="116.024" r="6.25226" fill="white"/>
<path d="M120.5 227.178C120.5 226.349 119.828 225.678 119 225.678C118.172 225.678 117.5 226.349 117.5 227.178H120.5ZM117.5 227.178C117.5 230.117 119.118 232.883 121.551 235.047C124.001 237.224 127.394 238.91 131.279 239.71C139.095 241.32 148.978 239.368 157.527 230.549L155.373 228.461C147.54 236.541 138.698 238.175 131.884 236.772C128.455 236.065 125.557 234.594 123.545 232.805C121.515 231 120.5 228.988 120.5 227.178H117.5Z" fill="#402216"/>
<path d="M192.186 226.678C192.186 225.849 192.858 225.178 193.686 225.178C194.515 225.178 195.186 225.849 195.186 226.678H192.186ZM195.186 226.678C195.186 229.617 193.568 232.383 191.135 234.547C188.686 236.724 185.293 238.41 181.407 239.21C173.591 240.82 163.708 238.868 155.159 230.049L157.313 227.961C165.146 236.041 173.988 237.675 180.802 236.272C184.231 235.565 187.129 234.094 189.142 232.305C191.171 230.5 192.186 228.488 192.186 226.678H195.186Z" fill="#402216"/>
<path d="M156.45 229.948V218" stroke="#402216" stroke-width="3"/>
<defs>
<linearGradient id="paint0_linear_1_32" x1="53.5" y1="0" x2="53.5" y2="107" gradientUnits="userSpaceOnUse">
<stop stop-color="#E3B592"/>
<stop offset="1" stop-color="#E1A071"/>
</linearGradient>
<linearGradient id="paint1_linear_1_32" x1="259.5" y1="0" x2="259.5" y2="107" gradientUnits="userSpaceOnUse">
<stop stop-color="#E3B592"/>
<stop offset="1" stop-color="#E1A071"/>
</linearGradient>
<linearGradient id="paint2_linear_1_32" x1="155.5" y1="12" x2="155.5" y2="279" gradientUnits="userSpaceOnUse">
<stop stop-color="#E3B592"/>
<stop offset="1" stop-color="#E1A071"/>
</linearGradient>
</defs>
</svg>
