<svg width="313" height="279" viewBox="0 0 313 279" fill="none" xmlns="http://www.w3.org/2000/svg">
<circle cx="155.5" cy="145.5" r="133.5" fill="#E2AF99"/>
<circle cx="53.5" cy="53.5" r="53.5" fill="#E2AF99"/>
<circle cx="259.5" cy="53.5" r="53.5" fill="#E2AF99"/>
<circle cx="157" cy="202.691" r="61" fill="#FFE6CE"/>
<path d="M181.896 185.481C181.896 197.286 168.601 218.322 156.694 218.322C144.787 218.322 130.943 197.286 130.943 185.481C130.943 173.677 144.787 171.8 156.694 171.8C168.601 171.8 181.896 173.677 181.896 185.481Z" fill="#BA7252"/>
<path d="M128.14 132.765C128.14 140.003 125.896 146.537 122.291 151.251C118.687 155.964 113.743 158.837 108.32 158.837C102.897 158.837 97.9532 155.964 94.3487 151.251C90.7439 146.537 88.5 140.003 88.5 132.765C88.5 125.527 90.7439 118.993 94.3487 114.279C97.9532 109.566 102.897 106.693 108.32 106.693C113.743 106.693 118.687 109.566 122.291 114.279C125.896 118.993 128.14 125.527 128.14 132.765Z" fill="white" stroke="black"/>
<path d="M127.961 133.032C127.961 147.855 118.757 158.083 108.875 158.083C98.9931 158.083 92.7715 147.855 92.7715 133.032C92.7715 118.209 98.9931 106.789 108.875 106.789C118.757 106.789 127.961 118.209 127.961 133.032Z" fill="#402216"/>
<path d="M126.172 131.16C126.172 143.915 118.684 152.715 110.644 152.715C102.605 152.715 97.5429 143.915 97.5429 131.16C97.5429 118.405 102.605 108.579 110.644 108.579C118.684 108.579 126.172 118.405 126.172 131.16Z" fill="black"/>
<circle cx="110.952" cy="117.217" r="6.25226" fill="white"/>
<circle cx="110.952" cy="117.217" r="6.25226" fill="white"/>
<path d="M223.569 131.572C223.569 138.81 221.325 145.344 217.72 150.058C214.116 154.771 209.172 157.644 203.749 157.644C198.326 157.644 193.382 154.771 189.778 150.058C186.173 145.344 183.929 138.81 183.929 131.572C183.929 124.334 186.173 117.8 189.778 113.087C193.382 108.373 198.326 105.5 203.749 105.5C209.172 105.5 214.116 108.373 217.72 113.087C221.325 117.8 223.569 124.334 223.569 131.572Z" fill="white" stroke="black"/>
<path d="M223.39 131.839C223.39 146.663 214.186 156.89 204.304 156.89C194.422 156.89 188.201 146.663 188.201 131.839C188.201 117.016 194.422 105.596 204.304 105.596C214.186 105.596 223.39 117.016 223.39 131.839Z" fill="#402216"/>
<path d="M221.601 129.967C221.601 142.722 214.113 151.522 206.073 151.522C198.034 151.522 192.972 142.722 192.972 129.967C192.972 117.212 198.034 107.386 206.073 107.386C214.113 107.386 221.601 117.212 221.601 129.967Z" fill="black"/>
<circle cx="206.382" cy="116.024" r="6.25226" fill="white"/>
<circle cx="206.382" cy="116.024" r="6.25226" fill="white"/>
<path d="M124.841 229.838C124.252 229.255 123.302 229.26 122.719 229.849C122.137 230.439 122.142 231.388 122.731 231.971L124.841 229.838ZM122.731 231.971C126.32 235.519 131.38 239.776 137.543 240.822C143.884 241.898 150.947 239.523 158.331 230.797L156.041 228.859C149.127 237.03 143.05 238.714 138.045 237.864C132.863 236.984 128.372 233.33 124.841 229.838L122.731 231.971Z" fill="#402216"/>
<path d="M191.732 229.911C192.267 229.279 192.188 228.333 191.555 227.797C190.923 227.262 189.976 227.341 189.441 227.974L191.732 229.911ZM156.131 231.086C159.72 234.634 164.78 238.891 170.944 239.937C177.285 241.013 184.348 238.638 191.732 229.911L189.441 227.974C182.527 236.145 176.45 237.829 171.446 236.979C166.263 236.099 161.773 232.445 158.241 228.953L156.131 231.086Z" fill="#402216"/>
<path d="M157.186 230.27V218.322" stroke="#402216" stroke-width="3"/>
</svg>
